<?xml version="1.0" encoding="UTF-8"?>
<svg width="700pt" height="700pt" version="1.1" viewBox="0 0 700 700" xmlns="http://www.w3.org/2000/svg">
 <g>
  <path d="m280 192.5c0-9.6641 7.8359-17.5 17.5-17.5h105c9.6641 0 17.5 7.8359 17.5 17.5s-7.8359 17.5-17.5 17.5h-105c-9.6641 0-17.5-7.8359-17.5-17.5z"/>
  <path d="m227.5 280c-9.6641 0-17.5 7.8359-17.5 17.5s7.8359 17.5 17.5 17.5h245c9.6641 0 17.5-7.8359 17.5-17.5s-7.8359-17.5-17.5-17.5z"/>
  <path d="m122.5 87.5c0-48.324 39.176-87.5 87.5-87.5h280c48.324 0 87.5 39.176 87.5 87.5v455c0 6.4531-3.5508 12.383-9.2422 15.43-5.6914 3.0469-12.594 2.7109-17.965-0.86719l-95.293-63.527-95.293 63.527c-5.8789 3.918-13.535 3.918-19.414 0l-95.293-63.527-95.293 63.527c-5.3711 3.5781-12.273 3.9141-17.965 0.86719-5.6914-3.0469-9.2422-8.9766-9.2422-15.43zm87.5-52.5c-28.996 0-52.5 23.504-52.5 52.5v422.3l77.793-51.863c5.8789-3.918 13.535-3.918 19.414 0l95.293 63.527 95.293-63.527c5.8789-3.918 13.535-3.918 19.414 0l77.793 51.863v-422.3c0-28.996-23.504-52.5-52.5-52.5z" fill-rule="evenodd"/>
 </g>
</svg>
