<?xml version="1.0" encoding="UTF-8"?>
<svg width="1200pt" height="1200pt" version="1.1" viewBox="0 0 1200 1200" xmlns="http://www.w3.org/2000/svg">
 <g>
  <path d="m326.06 452.81 245.81-246.56v670.5c0 10.047 5.3594 19.332 14.062 24.355 8.7031 5.0273 19.422 5.0273 28.125 0 8.7031-5.0234 14.062-14.309 14.062-24.355v-670.5l245.81 246.56c5.2578 5.293 12.414 8.2656 19.875 8.25 7.5586 0.023438 14.809-2.9766 20.145-8.3281 5.332-5.3516 8.3047-12.617 8.2539-20.172-0.050782-7.5586-3.1172-14.781-8.5234-20.062l-293.81-293.25c-5.2734-5.2656-12.422-8.2266-19.875-8.2266s-14.602 2.9609-19.875 8.2266l-293.81 293.25c-7.1992 7.1016-10.066 17.504-7.5195 27.289 2.5508 9.7891 10.125 17.473 19.875 20.156 9.75 2.6875 20.195-0.03125 27.395-7.1328z"/>
  <path d="m1043.8 1074.6c2.3984-4.168 3.6914-8.8789 3.75-13.688v-120.19c0-10.047-5.3594-19.332-14.062-24.355-8.7031-5.0273-19.422-5.0273-28.125 0-8.7031 5.0234-14.062 14.309-14.062 24.355v92.062h-782.62v-92.062c0-10.047-5.3594-19.332-14.062-24.355-8.7031-5.0273-19.422-5.0273-28.125 0-8.7031 5.0234-14.062 14.309-14.062 24.355v120.19c0.046875 5.2383 1.5391 10.367 4.3125 14.812l1.125 1.875c5.293 7.1055 13.641 11.281 22.5 11.25 6 0 839.44 1.3125 844.88 0 7.0078-1.207 13.191-5.2852 17.062-11.25 0.71484-0.87891 1.2266-1.9023 1.5-3z"/>
 </g>
</svg>
