<?xml version="1.0" encoding="UTF-8"?>
<svg width="3600pt" height="3600pt" version="1.1" viewBox="0 0 3600 3600" xmlns="http://www.w3.org/2000/svg">
 <g>
  <path d="m1840.5 3095.7c23.273-21.219 45.387-43.68 66.238-67.285-4.2656-6.2031-8.75-12.207-12.574-18.82h-0.003906c-17.871-30.867-29.734-64.844-34.969-100.13-98.555 128.02-214.89 210.59-340.46 231.75v-528.3c139.79 1.8672 279.1 16.715 416.14 44.355l58.867-102.4h-0.003906c-156.04-34.473-315.21-52.711-475-54.422v-642.63h650.07c-3.3945 170.55-25.281 340.24-65.277 506.07l163.85-285.02c7.6133-71.809 12.324-145.62 14.004-221.05h113.07l64.672-112.5h-177.68c-2.5352-252.52-46.027-502.95-128.79-741.53 98.172-32.695 189.08-84.109 267.69-151.39 168.43 169.18 288.92 380.06 349.14 611.07 4.9531-0.26562 9.8281-0.99219 14.82-0.99609h0.054688c36.086 0.066406 71.816 7.1055 105.23 20.73-47.094-208.87-139.41-404.87-270.45-574.2-131.04-169.33-297.61-307.87-487.98-405.86-190.37-97.988-399.91-153.04-613.86-161.29-43.586-6.1094-87.824-5.8359-131.33 0.80859-286.27 14.93-561.82 113.75-792.33 284.15s-405.8 404.86-504.03 674.16c-98.227 269.3-115.06 561.55-48.391 840.35 66.664 278.8 213.88 531.82 423.3 727.56 209.43 195.74 471.81 325.54 754.47 373.23 282.66 47.695 573.11 11.176 835.17-105.01-45.102-13.719-85.926-38.785-118.57-72.797-31.137 11.68-62.926 21.988-95.094 31.395zm-779-6.4414h-0.003907c-171.22-53.488-330.05-140.59-467.21-256.2 63.891-50.359 135.95-89.379 213.04-115.36 59.684 139.25 146.04 265.47 254.18 371.56zm-145.65-406.3c160.19-42.199 324.77-65.492 490.38-69.406v529.78c-195.25-24.82-369.17-198.05-490.38-460.38zm490.38-181.91c-180.61 3.3398-360.11 29.055-534.39 76.555-83.441-230.97-127.79-474.23-131.21-719.79h665.6zm-9.7812-2046.2c3.2422-0.15625 6.5352-0.11328 9.7812-0.25v546.09c-168.89-1.7344-336.99-23.215-500.88-64.008 119.56-270.71 294.18-451.7 491.1-481.84zm-600.02 448.84c-80.402-25.723-156-64.547-223.75-114.9 139.19-122.36 302.09-214.75 478.54-271.41-109.27 110.96-195.82 242.18-254.79 386.32zm1205.9 29.031c-158.08 40.949-320.34 63.59-483.59 67.465v-544.52c193.62 32.57 365.24 211.17 483.59 477.05zm-596.09 180.46v632.16h-665.69c2.8867-239.61 44.348-477.18 122.79-703.61 177.37 45.914 359.7 69.91 542.9 71.449zm762.73 632.16h-650.23v-632.65c177.77-3.3281 354.47-28.223 526.23-74.145 79.234 227.36 121.11 466.04 123.99 706.79zm168.79-969.55c-67.484 54.492-144.38 96.148-226.89 122.91-59.914-145.5-148.27-277.58-259.88-388.5 178.89 53.875 344.64 144.31 486.76 265.59zm-1846.8 91.023c79.152 62.25 168.67 110.04 264.43 141.18-81.738 237.36-124.71 486.32-127.27 737.35h-514.15c6.7539-163.22 43.238-323.83 107.66-473.95 64.422-150.12 155.7-287.22 269.34-404.57zm-376.99 991.02h514.24c2.9922 257.62 48.949 512.94 135.98 755.44-92.594 31.906-178.55 80.516-253.62 143.41-119.41-118.35-215.54-258.06-283.41-411.87-67.867-153.82-106.27-319-113.19-486.98z"/>
  <path d="m2784.4 1856.8-0.61719 1.0664h1.2344z"/>
  <path d="m2930.5 1659.6c-14.633-25.824-35.891-47.277-61.578-62.141-25.691-14.867-54.887-22.609-84.566-22.426h-0.027344c-29.684-0.17578-58.879 7.5703-84.566 22.441-25.691 14.867-46.949 36.324-61.578 62.152v-0.027344l-646.85 1125.2c-19.742 34.328-26.77 74.512-19.852 113.5 6.918 38.992 27.34 74.301 57.688 99.742 30.348 25.438 68.68 39.383 108.28 39.391h1293.8c39.602-0.007812 77.934-13.953 108.29-39.391 30.348-25.438 50.777-60.742 57.707-99.734 6.9258-38.988-0.089844-79.172-19.82-113.51zm549.29 1237.4c-4.8477 8.5859-11.914 15.715-20.453 20.641-8.5391 4.9258-18.246 7.4727-28.105 7.375h-1293.8c-20.02 0-38.523-10.672-48.543-28.008-10.02-17.332-10.035-38.691-0.042969-56.039l646.88-1125.2v-0.027344c6.582-11.453 16.996-20.211 29.406-24.734 12.41-4.5234 26.02-4.5195 38.426 0.011719 12.41 4.5312 22.816 13.297 29.395 24.75l646.9 1125.2c4.9922 8.4961 7.6172 18.176 7.6055 28.027-0.015625 9.8555-2.668 19.523-7.6875 28.004z"/>
  <path d="m2784.4 2534.1c11.066-0.03125 22.121-0.64453 33.125-1.8398 11.645-1.207 25.133-3.3516 40.457-6.4258l8.293-428.66c-14.316-2.3125-28.746-3.8438-43.23-4.5859-13.512-0.60547-26.395-0.90625-38.645-0.90625-12.277 0-25.305 0.30078-39.082 0.90625-14.344 0.69141-28.629 2.2227-42.793 4.5859l8.293 428.66c24.242 4.8945 48.859 7.6602 73.582 8.2656z"/>
  <path d="m2861.6 2603c-14.117-2.4453-27.457-4.2852-40.02-5.5195-12.551-1.2109-24.992-1.8398-37.242-1.8398-12.277 0-24.691 0.61328-37.242 1.8398-12.578 1.2344-25.918 3.0781-40.02 5.5195-1.8398 14.117-3.3789 27.457-4.6133 40.02-1.2344 12.578-1.8477 24.691-1.8398 36.336 0 11.645 0.61328 23.906 1.8398 36.777 1.2344 12.883 2.7734 26.375 4.6133 40.484 14.09 2.4453 27.43 4.2852 40.02 5.5195 12.551 1.207 24.965 1.8203 37.242 1.8398 12.25 0 24.691-0.63281 37.242-1.8398 12.578-1.2344 25.918-3.0781 40.02-5.5195 1.8398-14.09 3.3789-27.586 4.6133-40.484 1.207-12.855 1.8203-25.113 1.8398-36.777 0-11.645-0.61328-23.758-1.8398-36.336-1.2344-12.555-2.7734-25.895-4.6133-40.02z"/>
 </g>
</svg>
