<?xml version="1.0" encoding="UTF-8"?>
<svg width="1200pt" height="1200pt" version="1.1" viewBox="0 0 1200 1200" xmlns="http://www.w3.org/2000/svg">
 <g fill-rule="evenodd">
  <path d="m599.29 8.5c327.27 0 590.79 264.93 590.79 590.79 0 327.27-263.52 590.79-590.79 590.79-325.86 0-590.79-263.52-590.79-590.79 0-325.86 264.93-590.79 590.79-590.79zm0 18.418c315.94 0 572.38 256.43 572.38 572.38 0 315.94-256.43 572.38-572.38 572.38-315.94 0-572.38-256.43-572.38-572.38 0-315.94 256.43-572.38 572.38-572.38z"/>
  <path d="m348.52 757.97c-29.754-45.336-46.754-100.59-46.754-158.68 0-24.086 4.25-48.172 9.918-70.84 1.418 1.418 2.832 4.25 5.668 5.668 32.586 34.004 104.84 41.086 150.18 24.086l52.422 52.422-43.918 43.918c-15.586 0-29.754 5.668-39.668 15.586l-87.84 87.84z"/>
  <path d="m742.39 859.98c-42.504 24.086-90.672 36.836-143.09 36.836-58.086 0-111.93-17-158.68-45.336l87.84-87.84c9.918-11.336 15.586-25.5 15.586-41.086l43.918-42.504 92.09 92.09c-1.418 14.168 2.832 28.336 12.75 38.254z"/>
  <path d="m881.23 502.95c9.918 29.754 15.586 62.336 15.586 96.34 0 62.336-18.418 120.43-51.004 168.59l-55.254-55.254c-9.918-9.918-24.086-14.168-39.668-12.75l-92.09-92.09 43.918-42.504c42.504 17 99.172 15.586 134.59-18.418z"/>
  <path d="m837.31 420.78 2.832 4.2539-43.918 43.918-2.8359-2.832z"/>
  <path d="m774.97 359.86 2.8359 1.4141-43.922 45.34-2.832-2.8359z"/>
  <path d="m599.29 301.77c34.004 0 66.59 5.668 97.758 17l-43.918 43.918c-35.418 34.004-36.836 90.672-19.836 134.59l-42.504 42.504-52.422-52.422c17-43.918 8.5-116.18-24.086-150.18-5.668-5.668-11.336-11.336-17-17 31.168-11.336 66.59-18.418 102.01-18.418z"/>
  <path d="m531.29 488.79 59.504 60.922 51.004-51.004c-18.418-42.504-18.418-97.758 15.586-131.76 58.086-58.086 116.18-116.18 175.68-175.68 28.336-28.336 79.34 21.25 49.586 51.004l-161.51 161.51 12.75 11.336 161.51-161.51c28.336-28.336 79.34 21.25 49.586 51.004l-161.51 161.51 12.75 11.336 161.51-161.51c28.336-28.336 79.34 21.25 49.586 51.004l-175.68 175.68c-32.586 32.586-89.258 34.004-130.34 15.586l-51.004 49.586 99.172 99.172c12.75-1.418 26.918 1.418 36.836 11.336l198.35 198.35c18.418 18.418 12.75 48.172-4.25 65.172l-18.418 18.418c-17 17-46.754 24.086-65.172 5.668l-199.77-199.77c-9.918-9.918-12.75-24.086-9.918-36.836l-99.172-99.172-51.004 51.004c1.418 12.75-2.832 26.918-12.75 36.836l-243.68 243.68c-18.418 18.418-48.172 18.418-66.59 0l-17-17c-18.418-18.418-18.418-48.172 0-66.59l243.68-242.27c9.918-11.336 24.086-15.586 38.254-14.168l49.586-51.004-59.504-59.504c-43.918 18.418-116.18 9.918-147.34-21.25-247.93-247.93-60.922-436.36 187.01-188.43 31.168 31.168 41.086 103.43 22.668 147.34zm72.254 73.672 34.004 32.586 59.504-59.504c36.836 21.25 92.09 22.668 121.84-7.082 58.086-58.086 117.59-116.18 175.68-174.26 11.336-12.75-12.75-36.836-24.086-24.086l-174.26 172.84-38.254-36.836 174.26-174.26c11.336-12.75-12.75-36.836-24.086-24.086l-174.26 172.84-38.254-36.836 174.26-174.26c11.336-12.75-12.75-36.836-24.086-24.086-59.504 58.086-117.59 116.18-175.68 174.26-29.754 29.754-28.336 85.008-5.668 121.84l-60.922 60.922zm-28.336 94.922-34.004-34.004-56.672 58.086c-11.336-4.25-22.668-1.418-31.168 7.082l-243.68 242.27c-11.336 11.336-11.336 29.754 0 41.086l17 17c11.336 11.336 29.754 11.336 41.086 0l243.68-243.68c7.082-8.5 9.918-19.836 5.668-29.754l58.086-58.086zm-66.59-164.34 235.18 235.18c11.336-4.25 22.668-4.25 28.336 2.832l199.77 198.35c9.918 9.918 7.082 26.918-5.668 39.668l-17 18.418c-12.75 11.336-29.754 14.168-39.668 5.668l-199.77-199.77c-5.668-7.082-7.082-18.418-1.418-28.336l-236.6-236.6c-38.254 25.5-113.34 12.75-137.43-11.336-229.52-230.93-68.004-392.45 161.51-162.93 24.086 24.086 38.254 100.59 12.75 138.84z"/>
 </g>
</svg>
