<?xml version="1.0" encoding="UTF-8"?>
<svg width="1200pt" height="1200pt" version="1.1" viewBox="0 0 1200 1200" xmlns="http://www.w3.org/2000/svg">
 <g>
  <path d="m1200 311.75c0-114.22-62.465-207.14-139.23-207.14-53.828 0-100.58 45.715-123.73 112.38-94.578-84.914-215.92-131.62-343.54-131.62-127.65 0-248.6 46.438-343.09 131.13v-57.324c0-18.496-14.648-33.543-32.668-33.543-18.02 0-32.676 15.047-32.676 33.543v171.98c0 7.3125-5.582 13.266-12.438 13.266-6.8555 0-12.438-5.9531-12.438-13.266v-190.59c0-19.828-15.695-35.961-35-35.961-19.305 0-34.98 16.133-34.98 35.961v190.59c0 7.3125-5.582 13.266-12.438 13.266-6.8594 0.003907-12.441-5.9492-12.441-13.266v-171.98c0-18.496-14.648-33.543-32.668-33.543-18.016 0-32.664 15.051-32.664 33.543v216.64c0 33.332 17.191 64.668 44.867 81.77l35.809 22.133-24 546.91c-0.73438 16.789 3 32.496 10.809 45.43 8.8477 14.648 26.027 32.105 57.723 32.105 31.695 0 48.875-17.457 57.723-32.105 7.8086-12.941 11.551-28.656 10.809-45.43l-4.7617-108.48c97.324 123.58 246.3 196.48 404.52 196.48 157.72 0 306.41-72.535 403.75-195.5l-5.0078 109.96c-0.74219 16.297 3.0195 31.551 10.895 44.113 8.8555 14.113 26.027 30.961 57.637 30.961s48.789-16.848 57.648-30.973c7.8672-12.551 11.637-27.809 10.895-44.113l-23.734-521.23c55.891-28.094 94.414-107.4 94.414-196.09zm-193.65 407.52c-52.703 182.79-222.31 310.37-412.85 310.37-191.32 0-361.12-128.26-413.32-312.02l-10.438-237.92 35.809-22.133c27.676-17.105 44.867-48.43 44.867-81.77v-34.34c82.031-108.75 206.86-171.11 343.08-171.11 126.95 0 246.43 55.629 328.35 152.65 3.1055 84.078 40.602 157.94 94.125 184.84zm-412.86-614.86c125.88 0 245.45 47.152 337.43 132.74-4.6953 18.02-7.7344 37.238-8.8477 57.266-84.84-91.258-203.24-143.13-328.57-143.13-131.99 0-258.26 59.199-343.09 159.58v-68.391c92.703-89.02 214.35-138.07 343.07-138.07zm-426.89 957.79c-9.1719 15.199-23.105 22.895-41.41 22.895-18.305 0-32.238-7.7031-41.41-22.895-5.8672-9.7148-8.6562-21.723-8.0938-34.742l24.238-552.5c0.15234-3.4492-1.5703-6.7031-4.5156-8.5234l-40.562-25.066c-22.086-13.66-35.809-38.781-35.809-65.574v-216.63c0-8 6.1133-14.492 13.629-14.492 7.5039 0 13.617 6.5039 13.617 14.496v171.98c0 17.82 14.125 32.312 31.484 32.312 17.363 0 31.484-14.496 31.484-32.312l0.003906-190.59c0-9.3242 7.1523-16.914 15.953-16.914s15.953 7.5898 15.953 16.914v190.59c0 17.82 14.125 32.312 31.484 32.312 17.363 0 31.484-14.496 31.484-32.312l0.003906-171.98c0-7.9922 6.1133-14.496 13.629-14.496 7.5039 0 13.617 6.5039 13.617 14.496v216.64c0 26.789-13.723 51.914-35.828 65.57l-40.562 25.066c-2.9414 1.8086-4.6562 5.0781-4.5156 8.5234l24.238 552.5c0.55469 13.004-2.2461 25.004-8.1133 34.738zm426.89 33.371c-161.63 0-313.17-79.039-406.02-211.48l-4.5234-103.01c70.855 160.19 231.67 267.6 410.54 267.6 178.21 0 338.82-106.91 409.98-266.37l-4.6875 102.79c-92.895 131.8-244.16 210.46-405.29 210.46zm498.53-602.45c-3.6562 1.5625-5.9531 5.2305-5.7695 9.1914l24.02 527.61c0.57031 12.418-2.1992 23.875-8.0078 33.133-9.1523 14.617-23.125 22.027-41.496 22.027-18.371 0-32.344-7.4102-41.484-22.027-5.8008-9.2773-8.5703-20.734-8.0078-33.133l24.02-527.62c0.17969-3.9727-2.125-7.6289-5.7695-9.1914-52.352-22.332-88.922-96.922-88.922-181.38 0-103.71 53.906-188.09 120.17-188.09 66.258 0 120.17 84.391 120.17 188.11 0 84.457-36.57 159.05-88.926 181.38z"/>
  <path d="m1060.8 165.06c-52 0-92.723 67.887-92.723 154.55 0 49.211 14 95.781 37.438 124.59 1.875 2.3125 4.6172 3.5156 7.3906 3.5156 0.17188 0 0.34375 0 0.52344-0.007813l95.297 0.007813c2.8672 0 5.582-1.2969 7.3828-3.5156 23.438-28.82 37.438-75.398 37.438-124.59-0.011719-86.668-40.746-154.55-92.746-154.55zm43.25 263.59h-86.504c-19.113-25.77-30.418-66.094-30.418-109.05 0-73.449 33.742-135.5 73.676-135.5 39.941 0 73.688 62.059 73.688 135.5-0.003907 42.961-11.316 83.285-30.441 109.05z"/>
 </g>
</svg>
