<?xml version="1.0" encoding="UTF-8"?>
<svg width="700pt" height="700pt" version="1.1" viewBox="0 0 700 700" xmlns="http://www.w3.org/2000/svg">
 <path d="m320.98 0c68.945 0 131.94 28.273 177.08 73.41 45.633 45.633 73.41 108.13 73.41 177.57 0 62.496-23.312 120.04-61.504 164.18l114.58 114.58c6.9453 6.9453 6.9453 18.352 0 24.801-6.4492 6.9453-17.855 6.9453-24.801 0l-114.58-114.58c-44.145 38.191-101.68 61.504-164.18 61.504-69.441 0-131.94-27.777-177.57-73.41-45.137-45.137-73.41-108.13-73.41-177.08 0-69.441 28.273-131.94 73.41-177.57 45.633-45.137 108.13-73.41 177.57-73.41zm0 213.78c9.4258 0 17.855-3.9688 23.809-9.9219l0.99219-0.99219c5.457-5.9531 9.4258-13.887 9.4258-23.312 0-9.4258-3.9688-17.855-10.418-24.305-5.9531-5.9531-14.383-9.9219-23.809-9.9219s-18.352 3.9688-24.305 9.9219l-0.99219 0.99219c-5.457 5.9531-8.9297 14.383-8.9297 23.312 0 9.4258 3.4727 18.352 9.9219 24.305 5.9531 5.9531 14.383 9.9219 23.809 9.9219zm0 35.219h-20.832c-12.398 0-23.312 4.9609-31.746 12.895-7.9375 7.9375-12.895 19.344-12.895 31.25v44.641h130.45v-44.641c0-11.906-4.9609-23.312-12.895-31.25l-0.99219-0.99219c-7.9375-7.4414-18.848-11.906-30.754-11.906h-20.336zm-55.059-27.281c-8.9297-11.906-14.383-26.289-14.383-42.16 0-18.352 7.4414-35.219 19.344-47.617l0.99219-0.99219c12.398-12.895 29.762-20.336 49.105-20.336 18.848 0 36.211 7.4414 48.609 20.336 12.398 12.398 20.336 29.762 20.336 48.609 0 15.871-5.457 30.258-14.383 42.16 7.9375 3.4727 14.879 8.4336 20.832 14.383l1.4883 0.99219c14.383 14.383 23.312 34.227 23.312 56.051v62c0 9.9219-7.9375 17.855-17.855 17.855h-165.17c-9.9219 0-17.359-7.9375-17.359-17.855v-62c0-21.824 8.9297-41.664 23.312-56.051 5.9531-6.4492 13.391-11.41 21.824-15.375zm207.33-123.51c-39.184-39.184-92.754-62.992-152.28-62.992-60.02 0-113.59 23.809-152.77 62.992-39.184 39.184-62.992 92.754-62.992 152.77 0 59.523 23.809 113.09 62.992 152.28 39.184 39.184 92.754 63.488 152.77 63.488 59.523 0 113.09-24.305 152.28-63.488 39.184-39.184 63.488-92.754 63.488-152.28 0-60.02-24.305-113.59-63.488-152.77z"/>
</svg>
