<?xml version="1.0" encoding="UTF-8"?>
<svg width="1200pt" height="1200pt" version="1.1" viewBox="0 0 1200 1200" xmlns="http://www.w3.org/2000/svg">
 <g>
  <path d="m459.76 553.2v155.96c0 6.3633 2.5273 12.469 7.0273 16.969 4.5 4.5039 10.605 7.0312 16.973 7.0312h232.41c6.3672 0 12.473-2.5273 16.973-7.0312 4.5-4.5 7.0273-10.605 7.0273-16.969v-155.96c24.156-14.156 40.844-38.242 45.609-65.832 4.7617-27.59-2.8789-55.875-20.887-77.312-18.008-21.438-44.555-33.848-72.551-33.914h-11.566c-0.96094-1.7109-2.0039-3.4609-3.125-5.25-17.047-25.891-45.734-41.742-76.727-42.398h-2.4375c-33 0.78906-63.148 18.891-79.359 47.648h-11.555c-28 0.070312-54.543 12.477-72.551 33.914-18.008 21.441-25.645 49.727-20.879 77.316 4.7656 27.59 21.453 51.676 45.613 65.828zm47.816-129.06h0.035156c0.71484 8.2852 5.6719 15.609 13.105 19.34 7.4297 3.7344 16.266 3.3438 23.336-1.0273 7.0742-4.375 11.367-12.105 11.348-20.422 0.039062-4.9531 0.75391-9.8828 2.1289-14.645 2.9531-8.7539 8.5039-16.398 15.914-21.918 7.4062-5.5195 16.324-8.6523 25.559-8.9766l1.2773-0.011719c14.906 0.25 28.73 7.8359 36.953 20.273 2.1328 3.3203 3.8672 6.8828 5.1641 10.613 1.375 4.7656 2.0938 9.6992 2.1328 14.664-0.023438 8.3164 4.2734 16.047 11.344 20.422 7.0742 4.3711 15.91 4.7617 23.34 1.0273 7.4297-3.7344 12.391-11.055 13.102-19.34h0.03125c12.5 0.10156 24.445 5.1523 33.223 14.051 8.7773 8.8945 13.668 20.91 13.602 33.41 0.09375 9.6016-2.8398 18.988-8.3867 26.824-5.5469 7.8398-13.426 13.727-22.512 16.828-0.23438 0.082031-0.41406 0.25391-0.64453 0.34375-0.45312 0.17578-0.92188 0.25781-1.3711 0.46484-4.4297 1.7148-9.1562 2.5156-13.902 2.3555-8.5586-0.011718-16.473 4.5391-20.773 11.938-4.2969 7.3984-4.332 16.527-0.085937 23.957 4.2461 7.4297 12.125 12.035 20.684 12.086v118.77h-184.42v-118.77c8.5469-0.066406 16.414-4.6758 20.648-12.098 4.2383-7.4258 4.2031-16.547-0.089844-23.938-4.293-7.3945-12.195-11.945-20.742-11.945-4.7461 0.16016-9.4805-0.64062-13.91-2.3555-0.44141-0.19922-0.89844-0.28516-1.3438-0.45312-0.23828-0.089844-0.41797-0.26953-0.66016-0.35547-9.0898-3.0977-16.969-8.9883-22.516-16.824-5.5469-7.8359-8.4844-17.227-8.3867-26.828-0.070312-12.496 4.8203-24.512 13.594-33.41 8.7773-8.8984 20.727-13.949 33.223-14.051z"/>
  <path d="m1072 1117.1h-54.742l-0.003906-177.41h54.668c6.3633 0 12.469-2.5273 16.969-7.0312 4.5039-4.5 7.0312-10.605 7.0312-16.969v-721.2c0.070312-42.199-16.602-82.707-46.355-112.63-29.758-29.922-70.168-46.82-112.37-46.988h-673.61c-42.324 0.046876-82.898 16.879-112.82 46.801-29.926 29.926-46.762 70.5-46.812 112.82v808.34c0.042969 0.97266 0.14844 1.9414 0.31641 2.8984-0.23047 2.9648-0.31641 5.7227-0.31641 7.9648 0.050782 40.16 16.027 78.664 44.426 107.06 28.398 28.395 66.902 44.367 107.06 44.414h737.82c0.23828 0 0.46094-0.0625 0.69531-0.070313h78.051c8.5742 0 16.496-4.5742 20.781-12 4.2891-7.4258 4.2891-16.574 0-24-4.2852-7.4258-12.207-12-20.781-12zm-920.05-922.61c0.039063-29.594 11.812-57.969 32.738-78.895 20.93-20.926 49.301-32.695 78.898-32.727h673.61c29.477 0.15234 57.688 11.992 78.445 32.918 20.758 20.922 32.367 49.23 32.281 78.703v697.2h-30.668v-4.5938c0-6.3633-2.5273-12.469-7.0312-16.969-4.5-4.5039-10.605-7.0312-16.969-7.0312h-737.82c-4.9648 0-9.8711 0.23047-14.715 0.69531-1.6523 0.15625-3.2461 0.47656-4.8828 0.68359-3.1562 0.39844-6.3281 0.75781-9.4219 1.3438-1.9531 0.37109-3.8398 0.91797-5.7656 1.3633-2.6992 0.62109-5.418 1.1797-8.0586 1.9414-2.0352 0.58984-3.9883 1.3438-5.9844 2.0117-2.4453 0.81641-4.9219 1.5703-7.3086 2.5078-2.0117 0.78906-3.9297 1.7383-5.8984 2.6094-2.2773 1.0078-4.5859 1.957-6.7969 3.0703-1.957 0.98438-3.8164 2.1211-5.7227 3.1875-2.1094 1.1836-4.2539 2.3086-6.2969 3.5898-1.8672 1.168-3.6328 2.4688-5.4414 3.7188-1.9688 1.3555-3.9688 2.6641-5.8672 4.1094-1.7422 1.3281-3.375 2.7734-5.0547 4.1758-1.832 1.5273-3.6992 3.0156-5.457 4.6328-0.26172 0.23828-0.55469 0.44922-0.8125 0.69141zm103.49 922.68c-27.434-0.027344-53.738-10.941-73.141-30.34-19.398-19.398-30.312-45.699-30.348-73.137-0.050781-1.6797 0.011719-3.3594 0.19141-5.0273 0.3125-1.2617 0.52734-2.5469 0.63672-3.8438 2.0938-25.707 13.844-49.668 32.895-67.059 19.047-17.391 43.977-26.918 69.766-26.668h713.82v79.043h-485.52c-8.5781 0-16.5 4.5742-20.785 12-4.2891 7.4258-4.2891 16.574 0 24 4.2852 7.4258 12.207 12 20.785 12h485.52v79.031z"/>
  <path d="m385.46 990.12h-69.863c-8.5781 0-16.5 4.5742-20.785 12-4.2891 7.4258-4.2891 16.574 0 24 4.2852 7.4258 12.207 12 20.785 12h69.867-0.003907c8.5781 0 16.5-4.5742 20.785-12 4.2891-7.4258 4.2891-16.574 0-24-4.2852-7.4258-12.207-12-20.785-12z"/>
  <path d="m244.22 300.68c6.3672 0 12.473-2.5273 16.973-7.0312 4.5-4.5 7.0273-10.605 7.0273-16.969v-66.938c0.003906-4.6641 3.7852-8.4453 8.4492-8.4492h135.89c8.5781 0 16.5-4.5742 20.785-12 4.2891-7.4258 4.2891-16.574 0-24-4.2852-7.4258-12.207-12-20.785-12h-135.89c-14.965 0.015625-29.312 5.9688-39.895 16.551-10.582 10.586-16.535 24.934-16.555 39.898v66.938c0.003906 6.3633 2.5312 12.469 7.0312 16.969 4.5 4.5039 10.605 7.0312 16.969 7.0312z"/>
  <path d="m244.2 376.44c6.3867 0.0625 12.527-2.4453 17.043-6.9609 4.457-4.5273 6.957-10.629 6.957-16.98 0-6.3555-2.5-12.453-6.957-16.98-4.5898-4.3359-10.664-6.75-16.98-6.75-6.3125 0-12.387 2.4141-16.98 6.75-4.4805 4.4961-7.0234 10.57-7.082 16.922-0.019531 6.3984 2.5352 12.539 7.082 17.039 4.4688 4.5117 10.57 7.0234 16.918 6.9609z"/>
 </g>
</svg>
