<?xml version="1.0" encoding="UTF-8"?>
<svg width="700pt" height="700pt" version="1.1" viewBox="0 0 700 700" xmlns="http://www.w3.org/2000/svg">
 <g>
  <path d="m350 253.75c25.527 0 50.008-10.141 68.059-28.191 18.051-18.051 28.191-42.531 28.191-68.059s-10.141-50.008-28.191-68.059c-18.051-18.051-42.531-28.191-68.059-28.191s-50.008 10.141-68.059 28.191c-18.051 18.051-28.191 42.531-28.191 68.059 0.046875 25.512 10.203 49.969 28.242 68.008 18.039 18.039 42.496 28.195 68.008 28.242zm0-175c20.887 0 40.918 8.2969 55.684 23.066 14.77 14.766 23.066 34.797 23.066 55.684s-8.2969 40.918-23.066 55.684c-14.766 14.77-34.797 23.066-55.684 23.066s-40.918-8.2969-55.684-23.066c-14.77-14.766-23.066-34.797-23.066-55.684 0.046875-20.871 8.3594-40.875 23.117-55.633 14.758-14.758 34.762-23.07 55.633-23.117z"/>
  <path d="m350 481.25h-166.25v-26.25c-0.011719-39.09 13.754-76.938 38.875-106.89s59.992-50.09 98.488-56.883c38.5-6.793 78.156 0.19922 112.01 19.746 4.0898 1.8477 8.9141 0.30078 11.168-3.5781 2.2539-3.8789 1.2109-8.8359-2.418-11.473-37.406-21.598-81.227-29.328-123.77-21.832-42.535 7.4961-81.074 29.738-108.84 62.82-27.773 33.086-43.004 74.891-43.016 118.09v30.977c0.097656 7.082 5.8672 12.773 12.949 12.773h170.8c4.832 0 8.75-3.918 8.75-8.75s-3.918-8.75-8.75-8.75z"/>
  <path d="m437.5 376.25c-6.9609 0-13.641 2.7656-18.562 7.6875s-7.6875 11.602-7.6875 18.562c0 4.832 3.918 8.75 8.75 8.75s8.75-3.918 8.75-8.75c0.09375-4.793 3.957-8.6562 8.75-8.75 4.832 0 8.75-3.918 8.75-8.75s-3.918-8.75-8.75-8.75z"/>
  <path d="m566.12 518.88-50.926-50.926h-0.875c17.738-21.898 22.938-51.391 13.766-78.039-9.1758-26.645-31.43-46.684-58.891-53.023-27.457-6.3398-56.246 1.9141-76.172 21.84-19.926 19.926-28.184 48.715-21.844 76.176 6.3398 27.457 26.383 49.711 53.027 58.887 26.645 9.1719 56.141 3.9727 78.039-13.766-0.074219 0.28906-0.074219 0.58984 0 0.875l50.926 50.926c1.5859 1.6914 3.8047 2.6523 6.125 2.6523 2.3203 0 4.5352-0.96094 6.125-2.6523 2.0195-1.4883 3.2695-3.8008 3.4062-6.3086 0.13281-2.5078-0.85938-4.9414-2.707-6.6406zm-159.07-57.398c-14.859-14.949-21.289-36.32-17.141-56.984 4.1523-20.66 18.332-37.895 37.809-45.945 19.48-8.0508 41.688-5.8555 59.215 5.8477 17.527 11.707 28.062 31.379 28.09 52.457 0.09375 16.766-6.5977 32.863-18.547 44.625-11.875 11.828-27.953 18.469-44.715 18.469s-32.84-6.6406-44.711-18.469z"/>
 </g>
</svg>
