<?xml version="1.0" encoding="UTF-8"?>
<svg width="1200pt" height="1200pt" version="1.1" viewBox="0 0 1200 1200" xmlns="http://www.w3.org/2000/svg">
 <g>
  <path d="m1149.6 1058.4-231.6-219.6c68.398-85.199 109.2-193.2 109.2-310.8 0-274.8-223.2-498-498-498s-499.2 223.2-499.2 499.2 223.2 499.2 499.2 499.2c117.6 0 225.6-40.801 310.8-109.2l219.6 231.6 2.3984 2.3984c26.398 24 67.199 22.801 91.199-2.3984 24-26.402 22.801-67.199-3.5977-92.402zm-1016.4-529.2c0-218.4 177.6-396 396-396 218.4 0 396 177.6 396 396 0 218.4-177.6 396-396 396-218.4 0-396-178.8-396-396z"/>
  <path d="m500.4 374.4c0 53.02-42.98 96-96 96-53.02 0-96-42.98-96-96 0-53.02 42.98-96 96-96 53.02 0 96 42.98 96 96"/>
  <path d="m439.2 495.6h-70.801c-51.602 0-94.801 38.398-100.8 90l-9.6016 82.801c-1.1992 10.801 6 20.398 15.602 22.801 40.801 8.3984 85.199 13.199 130.8 13.199 14.398 0 27.602 0 42-1.1992l9.6016-76.801c4.8008-40.801 26.398-76.801 56.398-102-20.398-18.004-45.598-28.801-73.199-28.801z"/>
  <path d="m681.6 543.6h-70.801c-51.602 0-94.801 38.398-100.8 90l-9.6016 82.801c-1.1992 10.801 6 20.398 16.801 22.801 40.801 8.3984 85.199 13.199 130.8 13.199s88.801-4.8008 130.8-13.199c10.801-2.3984 18-12 16.801-22.801l-9.6016-82.801c-9.6016-50.402-52.801-90-104.4-90z"/>
  <path d="m742.8 422.4c0 53.02-42.98 96-96 96s-96-42.98-96-96c0-53.02 42.98-96 96-96s96 42.98 96 96"/>
 </g>
</svg>
