<?xml version="1.0" encoding="UTF-8"?>
<svg width="1200pt" height="1200pt" version="1.1" viewBox="0 0 1200 1200" xmlns="http://www.w3.org/2000/svg">
 <g>
  <path d="m1145.6 155.55c-299.3-29.395-456.82 42.027-496.99 63.895-40.086-21.836-197.61-93.402-497.07-63.906-9.6133 0.94141-16.918 9.0195-16.918 18.66v50.82c0 10.355 8.3867 18.75 18.75 18.75 10.363 0 18.75-8.3945 18.75-18.75v-33.727c275.06-23.941 422.26 42.012 457.69 60.719v603.25c-135.24-93.742-384.12-85.848-457.69-81.172v-24.07c-0.24219-24.527-37.172-24.699-37.5 0v44.281c-0.22656 10.715 9.8516 19.926 20.508 18.668 3.4805-0.34766 351.4-31.375 480.29 95.25 7.2617 6.7812 19.188 7.2617 26.293-0.054688 23.859-23.391 56.926-42.855 98.273-57.824 9.7422-3.5352 14.758-14.281 11.242-24.023-3.5352-9.7305-14.301-14.75-24.023-11.242-30.543 11.07-57.258 24.508-79.871 40.156v-603.18c35.523-18.742 182.8-84.566 457.69-60.754v582.78c-18.879-1.1641-49.566-2.5-87.305-2.3086-10.363 0.0625-18.695 8.5039-18.641 18.859 0.054687 10.355 9.0078 18.367 18.859 18.641 60.699-0.51172 103.64 3.6172 104.08 3.6641 10.66 1.1797 20.746-7.9062 20.508-18.668v-620.06c0-9.6406-7.3242-17.715-16.918-18.656z"/>
  <path d="m476.33 317.81c0-10.355-8.3867-18.75-18.75-18.75h-114.66c-24.496 0.097656-24.539 37.398 0 37.5h95.91v81.582c0.10156 24.512 37.402 24.527 37.5 0v-100.33z"/>
  <path d="m457.58 542.73c-10.363 0-18.75 8.3945-18.75 18.75v81.582h-95.91c-24.477 0.085938-24.551 37.402 0 37.5h114.66c10.363 0 18.75-8.3945 18.75-18.75v-100.33c0-10.355-8.3867-18.75-18.75-18.75z"/>
  <path d="m56.25 436.89c10.363 0 18.75-8.3945 18.75-18.75v-81.582h95.91c24.477-0.085938 24.551-37.402 0-37.5h-114.66c-10.363 0-18.75 8.3945-18.75 18.75v100.33c0 10.355 8.3867 18.75 18.75 18.75z"/>
  <path d="m189.66 661.82c0-10.355-8.3867-18.75-18.75-18.75h-95.91v-81.582c-0.082031-24.48-37.41-24.547-37.5 0v100.33c0 10.355 8.3867 18.75 18.75 18.75h114.66c10.363 0 18.75-8.3945 18.75-18.75z"/>
  <path d="m104.45 389.48v200.68c0 10.355 8.3867 18.75 18.75 18.75h267.46c10.363 0 18.75-8.3945 18.75-18.75v-200.68c0-10.355-8.3867-18.75-18.75-18.75h-267.46c-10.367 0-18.75 8.3945-18.75 18.75zm37.5 18.75h229.96v84.062l-44.402-44.402c-7.0312-7.0312-19.484-7.0312-26.516 0l-42.039 42.051-30.031-40.047c-3.1133-4.1484-7.8008-6.8203-12.945-7.3867-5.3086-0.58594-10.328 1.0352-14.266 4.4141l-59.766 51.273v-89.965zm0 139.38 68.992-59.195 30.98 41.328c6.3945 9.0469 20.738 9.957 28.254 2.0039 0 0 44.074-44.082 44.074-44.082l57.66 57.66v26.082h-229.96z"/>
  <path d="m755.36 331.01h155.35c24.473-0.09375 24.559-37.398 0-37.5h-155.34c-24.477 0.09375-24.559 37.395-0.003907 37.5z"/>
  <path d="m755.36 428.11h271.88c24.438-0.089844 24.586-37.395 0-37.5h-271.88c-24.434 0.089844-24.586 37.398 0 37.5z"/>
  <path d="m990.86 580.41c-2.375-13.711-20.492-19.941-30.727-10.383-3.0859 4.1797-87.559 73.043-84.852 77.645l-116.51 345.07c-3.3125 9.8047 1.9414 20.434 11.738 23.758l100.2 33.984c9.4727 3.4219 20.746-2.125 23.785-11.754 0 0 116.71-345.26 116.71-345.26 5.0078-2.3633-20.477-107.88-20.344-113.06zm-125.88 428.54-64.672-21.938 108.89-322.58 51.324-44.926 13.551 66.715z"/>
 </g>
</svg>
