<?xml version="1.0" encoding="UTF-8"?>
<svg width="1200pt" height="1200pt" version="1.1" viewBox="0 0 1200 1200" xmlns="http://www.w3.org/2000/svg">
 <g>
  <path d="m512.95 251.32c13.914 0 27.258-5.5273 37.094-15.367 9.8398-9.8359 15.367-23.18 15.367-37.094s-5.5273-27.254-15.367-37.094c-9.8359-9.8359-23.18-15.363-37.094-15.363-13.914 0-27.254 5.5273-37.094 15.363-9.8359 9.8398-15.363 23.18-15.363 37.094 0.011719 13.91 5.543 27.246 15.379 37.078 9.8359 9.8359 23.172 15.367 37.078 15.383zm0-67.418c3.9688 0 7.7734 1.5742 10.578 4.3789 2.8047 2.8047 4.3828 6.6133 4.3828 10.578 0 3.9688-1.5781 7.7734-4.3828 10.578-2.8047 2.8047-6.6094 4.3828-10.578 4.3828-3.9648 0-7.7734-1.5781-10.578-4.3828-2.8047-2.8047-4.3789-6.6094-4.3789-10.578 0.003907-3.9648 1.5859-7.7656 4.3867-10.57 2.8047-2.8047 6.6055-4.3828 10.57-4.3906z"/>
  <path d="m938.67 417.23c-13.914 0-27.258 5.5273-37.098 15.367-9.8359 9.8359-15.363 23.18-15.363 37.094 0 13.914 5.5273 27.258 15.363 37.094 9.8398 9.8398 23.184 15.367 37.098 15.367 13.91 0 27.254-5.5273 37.094-15.367 9.8359-9.8359 15.363-23.18 15.363-37.094-0.011719-13.91-5.543-27.242-15.379-37.078-9.8359-9.8359-23.172-15.367-37.078-15.383zm0 67.418v0.003906c-3.9688 0-7.7734-1.5781-10.578-4.3828-2.8086-2.8047-4.3828-6.6094-4.3828-10.578s1.5742-7.7734 4.3828-10.578c2.8047-2.8047 6.6094-4.3828 10.578-4.3828 3.9648 0 7.7695 1.5781 10.578 4.3828 2.8047 2.8047 4.3789 6.6094 4.3789 10.578-0.007812 3.9648-1.5859 7.7656-4.3867 10.57-2.8047 2.8047-6.6055 4.3828-10.57 4.3906z"/>
  <path d="m479.23 362.09c5.9102 0 11.582-2.3477 15.762-6.5273 4.1797-4.1797 6.5312-9.8516 6.5312-15.766 0-5.9102-2.3516-11.582-6.5312-15.762-4.1797-4.1797-9.8516-6.5273-15.762-6.5273-5.9141 0-11.582 2.3477-15.766 6.5273-4.1797 4.1797-6.5273 9.8516-6.5273 15.766 0 5.9102 2.3477 11.582 6.5273 15.762 4.1836 4.1797 9.8516 6.5273 15.766 6.5273z"/>
  <path d="m769.38 232.91c5.9141 0 11.582-2.3477 15.762-6.5312 4.1836-4.1797 6.5312-9.8477 6.5312-15.762 0-5.9102-2.3516-11.582-6.5312-15.762-4.1797-4.1797-9.8516-6.5312-15.762-6.5312-5.9141 0-11.582 2.3477-15.762 6.5312-4.1836 4.1797-6.5312 9.8477-6.5312 15.762 0 5.9141 2.3477 11.582 6.5312 15.762 4.1797 4.1836 9.8516 6.5312 15.762 6.5312z"/>
  <path d="m1048.5 368.81c0 12.312-9.9805 22.293-22.293 22.293s-22.293-9.9805-22.293-22.293c0-12.309 9.9805-22.289 22.293-22.289s22.293 9.9805 22.293 22.289"/>
  <path d="m863.96 715.41c0 12.312-9.9805 22.293-22.293 22.293s-22.293-9.9805-22.293-22.293 9.9805-22.293 22.293-22.293 22.293 9.9805 22.293 22.293"/>
  <path d="m1003.9 644.48c-5.9102 0-11.582 2.3477-15.762 6.5273-4.1797 4.1797-6.5312 9.8516-6.5312 15.766 0 5.9102 2.3477 11.582 6.5312 15.762 4.1797 4.1797 9.8516 6.5312 15.762 6.5273 5.9141 0 11.582-2.3477 15.766-6.5273 4.1797-4.1797 6.5273-9.8516 6.5273-15.766 0-5.9102-2.3477-11.582-6.5273-15.762-4.1836-4.1797-9.8516-6.5273-15.766-6.5273z"/>
  <path d="m673.12 376.33c0 5.9141 2.3477 11.582 6.5273 15.762 4.1797 4.1836 9.8516 6.5312 15.762 6.5312 5.9141 0 11.586-2.3477 15.766-6.5273 4.1797-4.1797 6.5273-9.8516 6.5312-15.766 0-5.9102-2.3516-11.582-6.5312-15.762-4.1797-4.1797-9.8477-6.5312-15.762-6.5312-5.9141 0-11.582 2.3516-15.766 6.5312-4.1797 4.1797-6.5273 9.8516-6.5273 15.762z"/>
  <path d="m640.08 605.5c-3.7148 3.3086-5.9609 7.957-6.25 12.922s1.4062 9.8398 4.7109 13.555c7.0117 7.8555 13.734 15.711 20.18 23.438 3.1797 3.8242 7.75 6.2266 12.699 6.6797 4.9531 0.45312 9.8828-1.082 13.703-4.2617 3.8203-3.1797 6.2227-7.75 6.6758-12.699 0.45312-4.9531-1.0781-9.8828-4.2578-13.703-6.7031-8.0547-13.695-16.188-20.984-24.391-3.3047-3.7188-7.9531-5.9727-12.922-6.2617-4.9648-0.28906-9.8438 1.4102-13.555 4.7227z"/>
  <path d="m700.17 677.35c-4.0664 2.8633-6.8281 7.2227-7.6836 12.121-0.85547 4.8984 0.26953 9.9375 3.125 14.008 48.32 68.793 51.234 102.27 46.82 106.68-1.4375 0.79688-3.0664 1.1836-4.707 1.1172-0.38672 0.03125-0.88281-0.042969-1.2852-0.023438-32.676 0.29688-119.2-49.543-215.49-145.84-91.449-91.469-141.44-173.53-145.6-210.14h-0.003906c-0.26172-2.1914-0.32812-4.4023-0.20312-6.6055l-0.019531-0.15625v-0.007813c-0.046875-1.5898 0.33594-3.1602 1.1172-4.543 2.2695-2.1602 21.883-4.8711 71.281 23.969h0.003907c54.805 33.961 105.24 74.516 150.16 120.76 4.7344 4.7383 11.641 6.5859 18.109 4.8516 6.4688-1.7305 11.523-6.7852 13.258-13.254 1.7305-6.4727-0.11719-13.375-4.8516-18.109-100.95-100.95-229.87-189.31-274.48-144.73-6.6094 6.9258-10.684 15.879-11.57 25.41l-55.555 159.4-41.016 117.72-39.859 114.22-0.019531 0.039062-67.93 194.42-0.003906-0.003906c-1.5586 4.4648-1.375 9.3516 0.51562 13.684 1.8906 4.332 5.3477 7.793 9.6797 9.6875 4.3281 1.8906 9.2148 2.082 13.68 0.52734l194.55-67.805 114.28-39.883 117.72-41.016 159.77-55.688c9.3711-0.94922 18.16-4.9922 24.977-11.492 32.062-32.062-5.4922-101.84-42.645-154.76-2.8594-4.0703-7.2188-6.8359-12.121-7.6914-4.8984-0.85547-9.9375 0.26953-14.008 3.1328zm-518.17 327.01 44.551-127.52c1.2695 1.3984 2.5859 2.6641 3.8594 4.0586 12.066 13.195 24.25 26.121 36.57 38.441 12.375 12.375 25.336 24.59 38.551 36.676 1.3906 1.2734 2.6602 2.5938 4.0586 3.8633zm168.27-58.652c-5.75-5.0352-11.438-10.113-17.062-15.23-3.2891-2.9922-6.6484-5.9375-9.8906-8.9492-10.191-9.4844-20.188-19.062-29.832-28.699-9.5664-9.5703-19.082-19.5-28.512-29.633-3.1602-3.3984-6.2539-6.9297-9.3906-10.379-4.9844-5.4883-9.9375-11.035-14.848-16.637l25.027-71.723 0.17969 0.20703c10.074 12.242 20.723 24.418 31.633 36.539 2.6953 2.9922 5.4102 5.9766 8.1484 8.9492 11.133 12.105 22.508 24.152 34.398 36.039 11.883 11.891 23.938 23.273 36.051 34.414 3.0117 2.7734 6.0273 5.5156 9.043 8.2344 12.094 10.887 24.238 21.512 36.465 31.57l0.30859 0.26562zm113.61-39.652c-3.6094-2.8242-7.2148-5.6914-10.816-8.5977-3.5742-2.8828-7.1523-5.7188-10.719-8.6797-5.1836-4.3008-10.348-8.7617-15.516-13.223-3.3203-2.8672-6.6484-5.6641-9.957-8.5938-5.7188-5.0625-11.402-10.309-17.082-15.559-2.7227-2.5156-5.4609-4.9414-8.1758-7.5-8.3789-7.8945-16.703-15.969-24.977-24.227-8.2695-8.2695-16.344-16.598-24.227-24.984-2.4219-2.5703-4.7188-5.1641-7.1016-7.7422-5.4023-5.8438-10.793-11.695-15.996-17.578-2.7266-3.082-5.3281-6.1797-8-9.2695-4.6641-5.3945-9.3203-10.789-13.812-16.203-2.8281-3.4102-5.5391-6.832-8.2969-10.246-2.9805-3.6914-5.918-7.3867-8.8125-11.086l25.551-73.355c1.1406 1.5547 2.4336 3.1289 3.5938 4.6875 2.7461 3.6953 5.668 7.3945 8.5117 11.102 6.3203 8.2422 12.812 16.477 19.586 24.746 3.4492 4.2109 6.9258 8.3945 10.484 12.602 6.9922 8.2734 14.191 16.516 21.594 24.734 3.3281 3.707 6.5586 7.4062 9.957 11.094 10.848 11.77 21.953 23.473 33.48 34.996 11.516 11.52 23.215 22.625 34.992 33.477 3.6758 3.3867 7.3594 6.6055 11.051 9.918 8.2539 7.4062 16.52 14.629 24.805 21.66 4.2031 3.5547 8.3828 7.0273 12.59 10.473 8.2031 6.7188 16.375 13.164 24.559 19.441 3.8438 2.9492 7.6719 5.9688 11.5 8.8125 1.5352 1.1406 3.082 2.4141 4.6133 3.5352zm117.09-40.793c-5.543-3.7891-11.133-7.8203-16.727-11.863-5.2422-3.7852-10.453-7.3984-15.73-11.398-7.2344-5.4766-14.504-11.395-21.77-17.242-4.9023-3.9453-9.7891-7.6914-14.691-11.793-8.1055-6.7852-16.176-14-24.25-21.184-4.0703-3.6211-8.1602-7.0352-12.211-10.746-12.09-11.086-24.066-22.543-35.926-34.379-11.875-11.875-23.375-23.895-34.492-36.051-3.3008-3.6016-6.3242-7.2383-9.5508-10.855-7.6016-8.5195-15.203-17.043-22.355-25.594-3.8398-4.5898-7.3359-9.1641-11.035-13.746-6.1094-7.5742-12.266-15.156-17.969-22.691-3.7695-4.9805-7.168-9.8945-10.75-14.844-4.2109-5.8203-8.3867-11.629-12.32-17.391l33.457-95.988c0.16016 0.33203 0.37891 0.6875 0.54297 1.0195 3.1172 6.3906 6.582 12.93 10.398 19.621 0.74609 1.3125 1.5742 2.6484 2.3477 3.9688 3.2266 5.5195 6.6523 11.109 10.281 16.77 1.1406 1.7812 2.2617 3.5469 3.4414 5.3359 9.0703 13.797 19.184 27.883 30.086 42.012 1.4883 1.9297 3 3.8477 4.5156 5.7773 4.457 5.6758 9.0195 11.336 13.684 16.984 1.25 1.5156 2.4648 3.0273 3.7266 4.5391 5.8086 6.9453 11.738 13.832 17.785 20.664 1.3516 1.5273 2.7227 3.0195 4.0859 4.543 4.8945 5.4648 9.8359 10.867 14.82 16.199 1.75 1.8711 3.4844 3.7344 5.2422 5.5859 6.2148 6.5508 12.453 13.02 18.719 19.289l0.089844 0.09375 0.015625 0.015624 0.019531 0.023438c6.2617 6.2617 12.727 12.496 19.273 18.707 1.8242 1.7305 3.6562 3.4453 5.5 5.168 5.5703 5.2109 11.211 10.367 16.914 15.477 1.207 1.0781 2.3867 2.1719 3.6016 3.2461 6.8086 6.0312 13.68 11.949 20.621 17.746 1.6211 1.3555 3.2383 2.6719 4.8633 4.0156 5.8477 4.832 11.707 9.5547 17.578 14.16 1.457 1.1406 2.9023 2.3008 4.3594 3.4297 7.168 5.5508 14.32 10.895 21.449 16.035 0.84766 0.60938 1.6836 1.1719 2.5312 1.7773 6.4141 4.5664 12.773 8.918 19.078 13.055 1.3477 0.88672 2.6914 1.7773 4.0312 2.6406l-0.007812 0.003907c13.191 8.6016 26.867 16.434 40.961 23.457 0.58203 0.28516 1.2031 0.66406 1.7852 0.94531z"/>
  <path d="m658.42 226.11c0.62109 0.054687 1.2461 0.089843 1.8672 0.089843l0.003907 0.003907c4.6484-0.007813 9.1289-1.7383 12.574-4.8633 3.4414-3.1211 5.6055-7.4141 6.0625-12.039 1.3164-12.809 1.457-25.711 0.42187-38.543-0.36328-4.9766-2.7227-9.5938-6.5352-12.809-3.8164-3.2188-8.7656-4.7578-13.734-4.2773-4.9531 0.42188-9.5352 2.7969-12.738 6.5977-3.207 3.8008-4.7695 8.7188-4.3438 13.676 0.83594 10.543 0.70703 21.137-0.38281 31.656-0.49219 4.9492 1.0039 9.8906 4.1562 13.734 3.1523 3.8477 7.7031 6.2812 12.648 6.7734z"/>
  <path d="m541.42 443.34c3.7656 3.25 8.6641 4.8711 13.625 4.5078 4.957-0.36328 9.5703-2.6836 12.816-6.4492 39.215-46.84 71.125-99.336 94.648-155.71 1.8008-4.6406 1.6836-9.8047-0.32422-14.359-2.0078-4.5508-5.7422-8.1211-10.383-9.918-4.6406-1.7969-9.8047-1.6758-14.355 0.33594-4.5508 2.0117-8.1172 5.75-9.9102 10.391-22.086 52.32-51.766 101.1-88.074 144.76-3.2461 3.7695-4.8633 8.668-4.4961 13.625 0.37109 4.9609 2.6914 9.5703 6.4531 12.816z"/>
  <path d="m942 553.43c-101.55-6.2617-190.5 63.977-194.22 66.98-3.8711 3.1172-6.3438 7.6445-6.8789 12.586-0.53125 4.9414 0.92188 9.8906 4.0391 13.762 3.1172 3.8711 7.6445 6.3438 12.586 6.875 4.9414 0.53516 9.8945-0.91797 13.762-4.0352 0.78906-0.64062 80.477-64.289 168.4-58.738v-0.003907c6.6875 0.41406 13.086-2.7734 16.785-8.3555 3.6992-5.5859 4.1406-12.719 1.1523-18.715-2.9844-5.9961-8.9414-9.9453-15.629-10.355z"/>
  <path d="m746.66 496.37c-5.293 5.2188-18.328 1.4453-36.219-4.5039-22.176-7.3984-52.531-17.523-74.578 4.5586-4.7383 4.7344-6.5859 11.637-4.8555 18.109 1.7344 6.4688 6.7891 11.523 13.258 13.258 6.4688 1.7305 13.375-0.11719 18.109-4.8555 5.3086-5.2539 18.328-1.4453 36.199 4.5039 13.074 5.0898 26.867 8.0781 40.871 8.8633 12.613 0.38281 24.824-4.4766 33.727-13.422 22.047-22.047 11.938-52.406 4.5586-74.578-5.9688-17.891-9.7773-30.965-4.5234-36.219 5.2383-5.2539 18.309-1.4102 36.199 4.5234 22.137 7.3789 52.496 17.504 74.578-4.5234 22.027-22.027 11.902-52.387 4.5039-74.559-5.9688-17.871-9.7969-30.926-4.5586-36.164 5.2539-5.1992 18.273-1.4102 36.164 4.5586 22.176 7.3594 52.516 17.523 74.559-4.5039h0.003906c4.7383-4.7383 6.5859-11.641 4.8516-18.109s-6.7852-11.523-13.254-13.258c-6.4727-1.7344-13.375 0.11719-18.109 4.8516-5.2539 5.1992-18.293 1.4102-36.164-4.5586-22.211-7.3984-52.551-17.543-74.562 4.5039-22.027 22.027-11.902 52.387-4.5039 74.559 5.9688 17.871 9.7969 30.926 4.5586 36.164-5.2383 5.2383-18.309 1.4297-36.199-4.5234-22.156-7.3984-52.516-17.523-74.578 4.5234-22.047 22.047-11.938 52.406-4.5586 74.578 5.9688 17.895 9.7773 30.965 4.5234 36.223z"/>
 </g>
</svg>
